<svg width="39" height="24" viewBox="0 0 39 24" fill="none" xmlns="http://www.w3.org/2000/svg">
<path d="M1.80687 9.4514L16.8915 0.41068C17.2647 0.183221 17.692 0.0603272 18.1288 0.0548385C18.5656 0.0493497 18.9959 0.161467 19.3746 0.379477C19.7856 0.619207 20.1259 0.963614 20.361 1.37772C20.5961 1.79183 20.7176 2.26089 20.7132 2.73726V9.06177L35.1469 0.40828C35.5201 0.180821 35.9474 0.0579271 36.3842 0.0524384C36.821 0.0469496 37.2513 0.159067 37.63 0.377077C38.041 0.616807 38.3813 0.961214 38.6164 1.37532C38.8515 1.78943 38.973 2.25849 38.9686 2.73486V20.4163C38.9732 20.8928 38.8517 21.362 38.6166 21.7763C38.3815 22.1905 38.0411 22.5351 37.63 22.7749C37.2513 22.9929 36.821 23.105 36.3842 23.0995C35.9474 23.094 35.5201 22.9711 35.1469 22.7436L20.7132 14.0862V20.4131C20.7183 20.8901 20.5972 21.36 20.362 21.7749C20.1269 22.1897 19.7862 22.5348 19.3746 22.7749C18.9959 22.9929 18.5656 23.105 18.1288 23.0995C17.692 23.094 17.2647 22.9711 16.8915 22.7436L1.80687 13.7029C1.44827 13.4779 1.15262 13.1653 0.947678 12.7944C0.742737 12.4236 0.63522 12.0066 0.63522 11.5828C0.63522 11.1589 0.742737 10.7419 0.947678 10.3711C1.15262 10.0002 1.44827 9.68762 1.80687 9.4626V9.4514Z" fill="#F7C2CB"/>
</svg>
