<svg width="52" height="57" viewBox="0 0 52 57" fill="none" xmlns="http://www.w3.org/2000/svg">
<path d="M52 9.05966V41.2669C52 46.9103 47.2913 51.4991 41.5006 51.4991C38.7183 51.4916 36.0522 50.4111 34.0849 48.4939C32.1175 46.5766 31.0088 43.9783 31.0011 41.2669C31.0011 35.652 35.739 31.0632 41.5006 31.0632C43.9573 31.0632 46.1507 31.8897 47.9348 33.2578V16.2992L20.9989 23.7667V46.7678C20.9912 49.4792 19.8825 52.0775 17.9151 53.9947C15.9478 55.912 13.2817 56.9925 10.4994 57C4.70866 57 0 52.4112 0 46.7678C0 41.1529 4.70866 36.5641 10.4994 36.5641C12.9269 36.5641 15.1204 37.3906 16.9044 38.7302V13.5345C16.9044 9.34468 19.5073 6.09545 23.631 5.01237L40.5354 0.509059C43.9573 -0.403005 46.8526 -0.0894828 48.8999 1.44962C50.9764 2.96023 52 5.52541 52 9.05966Z" fill="#545353"/>
</svg>
