<svg width="40" height="24" viewBox="0 0 40 24" fill="none" xmlns="http://www.w3.org/2000/svg">
<path d="M37.9622 9.4514L22.8775 0.41068C22.5043 0.183221 22.077 0.0603272 21.6402 0.0548385C21.2034 0.0493497 20.7732 0.161467 20.3944 0.379477C19.9834 0.619207 19.6431 0.963614 19.408 1.37772C19.1729 1.79183 19.0514 2.26089 19.0558 2.73726V9.06176L4.6221 0.40828C4.24892 0.180821 3.82161 0.0579271 3.38481 0.0524384C2.94801 0.0469496 2.51776 0.159067 2.139 0.377077C1.72804 0.616807 1.38772 0.961214 1.15262 1.37532C0.917515 1.78943 0.796001 2.25849 0.800417 2.73486V20.4163C0.79586 20.8928 0.917307 21.362 1.15242 21.7763C1.38752 22.1905 1.72792 22.5351 2.139 22.7749C2.51776 22.9929 2.94801 23.105 3.38481 23.0995C3.82161 23.094 4.24892 22.9711 4.6221 22.7436L19.0558 14.0862V20.4131C19.0507 20.8901 19.1719 21.36 19.407 21.7749C19.6422 22.1897 19.9829 22.5348 20.3944 22.7749C20.7732 22.9929 21.2034 23.105 21.6402 23.0995C22.077 23.094 22.5043 22.9711 22.8775 22.7436L37.9622 13.7029C38.3208 13.4779 38.6164 13.1653 38.8214 12.7944C39.0263 12.4236 39.1338 12.0066 39.1338 11.5828C39.1338 11.1589 39.0263 10.7419 38.8214 10.3711C38.6164 10.0002 38.3208 9.68762 37.9622 9.46259V9.4514Z" fill="#F7C2CB"/>
</svg>
