<svg width="11" height="11" viewBox="0 0 11 11" fill="none" xmlns="http://www.w3.org/2000/svg">
<path fill-rule="evenodd" clip-rule="evenodd" d="M5.41257 0C8.2632 0 10.5819 2.31873 10.5819 5.16936C10.5819 6.51428 10.0658 7.74092 9.22119 8.66152L10.8831 10.32C11.0387 10.4755 11.0392 10.7271 10.8837 10.8827C10.8062 10.9612 10.7037 11 10.6018 11C10.5004 11 10.3985 10.9612 10.3204 10.8837L8.63844 9.20644C7.75363 9.91503 6.63175 10.3393 5.41257 10.3393C2.56194 10.3393 0.242676 8.02 0.242676 5.16936C0.242676 2.31873 2.56194 0 5.41257 0ZM5.41257 0.796267C3.00094 0.796267 1.03894 2.75774 1.03894 5.16936C1.03894 7.58099 3.00094 9.54299 5.41257 9.54299C7.82367 9.54299 9.78567 7.58099 9.78567 5.16936C9.78567 2.75774 7.82367 0.796267 5.41257 0.796267Z" fill="#505050"/>
</svg>
