<svg width="21" height="20" viewBox="0 0 21 20" fill="none" xmlns="http://www.w3.org/2000/svg">
<path d="M2.03418 8.33332V11.6667C2.03418 13.3333 2.8728 14.1667 4.55004 14.1667H5.74926C6.05955 14.1667 6.36984 14.2583 6.6382 14.4167L9.08696 15.9417C11.2003 17.2583 12.9362 16.3 12.9362 13.825V6.17499C12.9362 3.69165 11.2003 2.74165 9.08696 4.05832L6.6382 5.58332C6.36984 5.74165 6.05955 5.83332 5.74926 5.83332H4.55004C2.8728 5.83332 2.03418 6.66665 2.03418 8.33332Z" stroke="#7F7B75" stroke-width="0.8"/>
<path d="M15.4521 6.66683C16.1788 7.62811 16.5717 8.79788 16.5717 10.0002C16.5717 11.2024 16.1788 12.3722 15.4521 13.3335M16.9868 4.5835C18.1667 6.14599 18.8045 8.04671 18.8045 10.0002C18.8045 11.9536 18.1667 13.8543 16.9868 15.4168" stroke="#7F7B75" stroke-width="0.8" stroke-linecap="round" stroke-linejoin="round"/>
</svg>
